<?xml version="1.0" encoding="UTF-8"?>
<svg width="1200pt" height="1200pt" version="1.1" viewBox="0 0 1200 1200" xmlns="http://www.w3.org/2000/svg">
 <path d="m304.87 322.97v695.86h590.21l0.046875-837.66h-459.52v133.82c0 4.4062-3.5625 7.9688-7.9688 7.9688zm107.2 71.906c-4.4062 0-7.9688-3.5625-7.9688-7.9688s3.5625-7.9688 7.9688-7.9688h214.45c4.4062 0 7.9688 3.5625 7.9688 7.9688s-3.5625 7.9688-7.9688 7.9688zm-8.7188 94.172c-4.4062 0-7.9688-3.5625-7.9688-7.9688s3.5625-7.9688 7.9688-7.9688h406.5c4.4062 0 7.9688 3.5625 7.9688 7.9688s-3.5625 7.9688-7.9688 7.9688zm0 62.766c-4.4062 0-7.9688-3.5625-7.9688-7.9688s3.5625-7.9688 7.9688-7.9688h406.5c4.4062 0 7.9688 3.5625 7.9688 7.9688s-3.5625 7.9688-7.9688 7.9688zm0 62.812c-4.4062 0-7.9688-3.5625-7.9688-7.9688s3.5625-7.9688 7.9688-7.9688h406.5c4.4062 0 7.9688 3.5625 7.9688 7.9688s-3.5625 7.9688-7.9688 7.9688zm0 62.812c-4.4062 0-7.9688-3.5625-7.9688-7.9688s3.5625-7.9688 7.9688-7.9688h406.5c4.4062 0 7.9688 3.5625 7.9688 7.9688s-3.5625 7.9688-7.9688 7.9688zm0 62.766c-4.4062 0-7.9688-3.5625-7.9688-7.9688s3.5625-7.9688 7.9688-7.9688h406.5c4.4062 0 7.9688 3.5625 7.9688 7.9688s-3.5625 7.9688-7.9688 7.9688zm0 62.812c-4.4062 0-7.9688-3.5625-7.9688-7.9688s3.5625-7.9688 7.9688-7.9688h203.26c4.4062 0 7.9688 3.5625 7.9688 7.9688s-3.5625 7.9688-7.9688 7.9688zm-114.42-169.31-1.125-5.1094-78.281 303.24 79.359 20.484v-318.61zm83.672-412.64-81.234 88.125c-1.5 1.4531-2.4844 3.5156-2.4844 5.7656v244.26l-66.938-305.11zm180.28-55.875h-125.29c-0.60938 0-1.2188 0.09375-1.7812 0.1875l-0.75 0.1875c-0.1875 0.046875-0.32812 0.14062-0.51562 0.1875-0.51562 0.23438-1.0312 0.51562-1.5 0.84375l-0.1875 0.09375-0.14062 0.09375-0.14062 0.14062c-0.09375 0.09375-0.1875 0.1875-0.28125 0.23438-0.1875 0.1875-0.375 0.32812-0.51562 0.51562-0.09375 0.09375-0.1875 0.23438-0.28125 0.32812l-20.484 22.219 18-69.703 154.82 39.938-20.859 4.5938zm253.82 0-8.25-37.547-171.14 37.547zm104.34 401.11 1.125 5.1094 78.281-303.24-79.359-20.484v318.61zm0 394.26 66.938-14.672-66.938-305.11v319.82zm-263.95 74.25-20.859 4.5938 154.82 39.938 11.484-44.531h-145.5zm-253.82 0 8.25 37.547 171.14-37.547zm26.344-841.22v113.39h-104.53l86.156-93.469c0.1875-0.1875 0.32812-0.32812 0.46875-0.51562z" fill="#fff" fill-rule="evenodd"/>
</svg>
